<?xml version="1.0" encoding="iso-8859-1"?>
<!-- Generator: Adobe Illustrator 19.0.0, SVG Export Plug-In . SVG Version: 6.00 Build 0)  -->
<svg version="1.1" id="Capa_1" xmlns="http://www.w3.org/2000/svg" xmlns:xlink="http://www.w3.org/1999/xlink" x="0px" y="0px"
	 viewBox="0 0 200.569 200.569" style="enable-background:new 0 0 200.569 200.569;" xml:space="preserve">
<g>
	<g>
		<path d="M90.913,160.559c-0.117-2.381-0.471-6.14-1.492-10.49c-2.091-9.254-7.305-18.758-13.948-25.429
			c-6.54-6.747-15.949-12.13-25.145-14.396c-4.308-1.1-8.076-1.529-10.471-1.696c-0.376-0.027-0.734-0.041-1.062-0.041
			c-3.529,0-4.539,1.851-4.827,2.952c-0.229,0.875-0.436,3.095,2.57,4.781l0.386,0.219c1.672,0.947,3.962,2.242,6.662,3.965
			c3.395,2.115,12.13,7.904,19.943,15.972c7.579,7.626,13.003,15.943,15.581,20.255c1.67,2.719,2.935,5.045,3.858,6.742l0.176,0.323
			c0.986,1.836,2.293,2.767,3.886,2.767c1.009,0,1.953-0.408,2.657-1.148C90.918,164.038,90.998,162.188,90.913,160.559z
			 M68.346,131.671c-5.844-6.036-12.064-10.819-16.727-14.04c7.073,2.302,14.017,6.555,19.022,11.723
			c0.011,0.013,0.023,0.022,0.035,0.035c5.111,5.125,9.252,12.181,11.412,19.334C78.943,143.971,74.262,137.624,68.346,131.671z"/>
	</g>
</g>
<g>
	<g>
		<path d="M191.157,11.076c-6.445-6.564-15.57-9.892-27.123-9.892c-14.29,0-31.642,5.202-50.181,15.045
			c-18.81,9.987-37.969,24.315-55.409,41.435C34.48,81.192,16.093,107.611,6.671,132.048c-9.757,25.307-8.783,45.709,2.743,57.448
			c6.441,6.561,15.564,9.888,27.115,9.89c0.002,0,0.003,0,0.006,0c14.288,0,31.64-5.203,50.176-15.046
			c18.812-9.988,37.973-24.318,55.412-41.439c23.966-23.527,42.354-49.944,51.776-74.381
			C203.656,43.216,202.681,22.816,191.157,11.076z M187.6,66.091c-9.083,23.557-26.913,49.125-50.206,71.99
			c-33.755,33.141-73.345,54.555-100.86,54.554h-0.006c-9.672-0.001-17.175-2.648-22.299-7.867
			c-4.712-4.799-7.217-11.596-7.447-20.201c-0.233-8.715,1.849-18.838,6.187-30.09c9.083-23.559,26.913-49.127,50.206-71.995
			c33.752-33.135,73.342-54.547,100.86-54.547c9.674,0,17.18,2.648,22.308,7.87c4.711,4.799,7.216,11.595,7.445,20.2
			C194.019,44.718,191.938,54.841,187.6,66.091z"/>
	</g>
</g>
<g>
	<g>
		<path d="M168.35,84.531c-0.121-2.419-0.478-6.208-1.488-10.489c-2.084-9.243-7.302-18.757-13.928-25.418
			c-6.553-6.755-15.971-12.144-25.166-14.411c-4.38-1.115-8.122-1.535-10.468-1.689c-0.378-0.027-0.736-0.041-1.066-0.041
			c-3.527,0-4.536,1.849-4.824,2.951c-0.229,0.875-0.434,3.093,2.567,4.776l0.312,0.177c1.688,0.956,3.997,2.265,6.737,4.013
			c3.391,2.113,12.119,7.894,19.94,15.972c7.569,7.617,13.004,15.937,15.587,20.247c1.605,2.62,2.845,4.893,3.75,6.553l0.284,0.52
			c0.984,1.835,2.293,2.766,3.885,2.766c1.012,0,1.956-0.41,2.661-1.153C168.363,88.004,168.439,86.153,168.35,84.531z
			 M145.785,55.646c-5.854-6.047-12.079-10.832-16.74-14.051c7.072,2.301,14.029,6.56,19.074,11.759
			c5.112,5.139,9.25,12.192,11.408,19.334C156.376,67.936,151.693,61.59,145.785,55.646z"/>
	</g>
</g>
<g>
	<g>
		<path d="M128.897,119.444c-0.023-1.082-0.15-4.808-0.757-7.383c-2.082-9.241-7.295-18.748-13.946-25.434
			c-6.549-6.754-15.957-12.137-25.145-14.397c-4.344-1.108-8.098-1.534-10.477-1.696c-0.367-0.025-0.716-0.038-1.038-0.038
			c-3.549,0-4.56,1.854-4.848,2.959c-0.228,0.877-0.432,3.097,2.565,4.768l0.477,0.271c1.657,0.941,3.926,2.23,6.577,3.915
			c4.224,2.634,12.427,8.207,19.905,15.945c0.012,0.011,0.022,0.023,0.033,0.034c7.577,7.624,13.007,15.939,15.587,20.249
			c1.644,2.678,2.896,4.981,3.812,6.663l0.219,0.402c0.67,1.25,1.862,1.998,3.19,2h0.004c1.07,0,2.072-0.487,2.748-1.34
			C128.468,125.524,129.009,124.424,128.897,119.444z M107.048,93.645c-5.825-6.023-12.041-10.805-16.707-14.029
			c7.066,2.298,14.008,6.551,19.02,11.724c0.011,0.011,0.022,0.022,0.033,0.033c5.112,5.133,9.251,12.184,11.409,19.327
			C117.657,105.954,112.975,99.612,107.048,93.645z"/>
	</g>
</g>
<g>
</g>
<g>
</g>
<g>
</g>
<g>
</g>
<g>
</g>
<g>
</g>
<g>
</g>
<g>
</g>
<g>
</g>
<g>
</g>
<g>
</g>
<g>
</g>
<g>
</g>
<g>
</g>
<g>
</g>
</svg>
